<svg width="512" height="512" viewBox="0 0 512 512" fill="none" xmlns="http://www.w3.org/2000/svg">
<g clip-path="url(#clip0_97_3)">
<path d="M255.437 -0.374961C256.908 -0.36848 256.908 -0.36848 258.409 -0.361869C272.78 -0.287773 286.874 0.131576 301 3.00004C301.9 3.17696 302.801 3.35389 303.728 3.53617C310.203 4.83513 316.607 6.34623 323 8.00004C323.82 8.20967 324.64 8.41931 325.485 8.63529C365.951 19.2182 402.973 41.0803 433 70C433.989 70.9482 433.989 70.9482 434.998 71.9156C444.486 81.06 453.226 90.3574 461 101C461.858 102.151 462.716 103.302 463.574 104.453C469.611 112.643 474.994 121.145 480 130C480.402 130.707 480.804 131.414 481.218 132.143C502.495 169.934 512.476 212.377 512.312 255.563C512.31 256.583 512.308 257.604 512.306 258.656C512.256 273.298 511.945 287.61 509 302C508.806 302.997 508.613 303.993 508.414 305.02C500.301 346.079 482.956 383.249 457 416C456.564 416.553 456.128 417.106 455.678 417.676C452.58 421.57 449.345 425.317 446 429C445.337 429.731 444.675 430.461 443.992 431.214C441.793 433.607 439.559 435.963 437.312 438.313C436.611 439.073 435.911 439.833 435.188 440.617C430.169 445.747 430.169 445.747 426.806 446.474C424.668 446.48 424.668 446.48 421 446C416.291 446 413.716 448.754 410.16 451.645C407.306 454.756 407.288 456.703 407.34 460.772C406.806 464.27 404.727 465.364 402.066 467.487C398.695 469.955 395.209 472.169 391.625 474.313C390.837 474.786 390.048 475.26 389.236 475.748C386.832 477.18 384.419 478.594 382 480C380.966 480.602 380.966 480.602 379.912 481.217C346.745 500.291 306.54 512.002 268.207 512.203C267.306 512.21 266.406 512.217 265.478 512.224C262.589 512.242 259.701 512.248 256.812 512.25C255.825 512.251 254.837 512.251 253.82 512.252C239.329 512.236 225.259 511.783 211 509C210.103 508.839 209.206 508.678 208.281 508.512C164.677 500.622 123.54 480.932 89.9997 452C89.2546 451.366 88.5095 450.732 87.7419 450.078C74.2447 438.274 61.5262 425.536 50.9997 411C50.5184 410.347 50.0371 409.694 49.5412 409.022C26.0342 377.075 10.1867 341.053 2.9997 302C2.75848 300.799 2.75848 300.799 2.5124 299.574C-2.96371 271.578 -2.84738 237.917 2.9997 210C3.19838 209.025 3.39705 208.05 3.60175 207.046C12.9684 162.268 35.6056 103.836 73.9997 75C76.9056 74.0784 78.5263 73.8696 81.4802 74.6836C84.1506 75.2809 84.1506 75.2809 86.6755 73.4102C91.6899 69.3385 91.6899 69.3385 94.5036 63.793C94.3816 61.8586 94.1926 59.9287 93.9997 58C96.8468 53.5712 100.647 50.7482 104.875 47.75C105.774 47.081 105.774 47.081 106.691 46.3985C110.399 43.7442 113.31 42.2083 118 42C118.907 42.4332 119.815 42.8663 120.75 43.3125C124.848 44.1794 125.761 43.2756 129.25 41.125C130.1 40.5501 130.951 39.9752 131.828 39.3829C134 38 134 38 136 38C135.845 36.4222 135.845 36.4222 135.687 34.8125C136 31 136 31 137.98 28.5274C141.64 25.4639 145.272 23.6478 149.625 21.75C150.489 21.3694 151.353 20.9888 152.243 20.5967C167.573 14.0239 183.522 8.72532 199.812 5.12504C200.62 4.94618 201.428 4.76732 202.261 4.58305C205.166 3.98933 208.074 3.4834 211 3.00004C211.751 2.87583 212.502 2.75161 213.275 2.62364C227.384 0.347608 241.158 -0.495202 255.437 -0.374961Z" fill="#EAEAEA"/>
<path d="M83.9997 76C86.2571 78.8463 86.3668 81.4498 85.9997 85C84.4177 87.2187 84.4177 87.2187 82.1872 89.5C81.3622 90.3753 80.5372 91.2505 79.6872 92.1523C78.8003 93.0921 77.9135 94.0318 76.9997 95C51.7733 123.267 35.0067 155.889 23.9997 192C23.648 193.117 23.648 193.117 23.2893 194.257C18.8204 208.649 17.7477 224.083 15.9997 239C17.8482 238.983 17.8482 238.983 19.7341 238.965C28.8773 238.906 37.8985 238.983 46.9997 240C47.1699 239.056 47.34 238.113 47.5153 237.141C52.3841 211.346 52.3841 211.346 62.9997 202.5C69.0376 199.488 77.1057 199.96 83.4724 201.66C89.34 204.272 93.1475 208.885 96.3747 214.312C99.1031 226.045 94.8692 238.914 90.9997 250C92.1483 250.122 92.1483 250.122 93.32 250.246C98.4028 251.287 103.054 253.171 107.875 255.062C109.336 255.628 109.336 255.628 110.828 256.205C113.22 257.132 115.611 258.063 118 259C118.383 257.745 118.383 257.745 118.773 256.465C122.731 245.286 128.074 235.797 138.375 229.562C145.526 228.03 152.541 228.408 159 232C161.687 234.188 161.687 234.188 164 237C164.466 237.566 164.933 238.132 165.414 238.715C169.474 244.26 170.009 249.272 169 256C167.082 262.868 163.468 269.106 160.074 275.336C158.882 277.843 158.882 277.843 158.949 280.078C160.594 283.086 163.305 284.58 166.125 286.375C170.009 288.929 173.657 291.436 177.062 294.625C179.626 297.248 179.626 297.248 181.958 296.867C184.464 295.803 185.76 294.504 187.609 292.508C188.618 291.45 188.618 291.45 189.648 290.371C191.038 288.886 192.423 287.396 193.804 285.902C198.928 280.554 203.016 277.804 210.468 276.602C217.044 276.677 222.069 278.228 227.687 281.625C233.644 287.742 235.554 293.427 235.566 301.91C233.801 311.54 227.33 316.977 220.404 323.352C219.697 324.024 218.99 324.697 218.261 325.391C217.286 326.288 217.286 326.288 216.291 327.204C214.765 328.914 214.765 328.914 215.18 331.071C216.375 333.883 218.197 335.878 220.187 338.188C224.171 342.922 227.705 347.768 231 353C235.322 352.527 238.491 350.765 242.231 348.71C250.081 344.426 256.85 340.982 266 343C272.48 345.084 276.914 348.946 280.75 354.562C283.608 360.136 283.997 366.347 282.351 372.375C278.788 381.389 271.538 385.616 263.187 389.875C262.425 390.277 261.662 390.679 260.877 391.094C255.287 394 255.287 394 253 394C253.237 394.569 253.474 395.138 253.718 395.725C254.8 398.334 255.868 400.948 256.937 403.562C257.31 404.458 257.684 405.353 258.068 406.275C260.084 411.233 261.538 415.66 262 421C262.86 420.727 262.86 420.727 263.737 420.449C290.008 412.23 290.008 412.23 299.875 417C304.904 420.191 308.354 424.708 311 430C311.81 438.302 312.055 445.251 306.898 452.168C302.322 456.584 297.337 458.852 291.312 460.625C290.616 460.837 289.92 461.048 289.203 461.266C283.54 462.944 277.85 464.17 272 465C272.163 465.898 272.327 466.797 272.496 467.723C273.288 473.269 273.105 478.847 273.062 484.438C273.058 485.551 273.053 486.664 273.049 487.811C273.037 490.54 273.02 493.27 273 496C315.67 492.067 358.061 478.572 393.25 453.703C397.278 451.208 399.349 451.466 404 452C406.486 453.524 406.872 454.653 407.875 457.375C408.04 460.843 406.968 462.172 405 465C367.499 499.737 305.676 512.505 256.375 512.312C254.92 512.31 254.92 512.31 253.436 512.307C239.084 512.262 225.12 511.756 211 509C210.103 508.839 209.206 508.678 208.281 508.512C164.677 500.622 123.54 480.932 89.9997 452C89.2546 451.366 88.5095 450.732 87.7419 450.078C74.2447 438.274 61.5262 425.536 50.9997 411C50.5184 410.347 50.0371 409.694 49.5412 409.021C26.0342 377.075 10.1867 341.053 2.9997 302C2.83889 301.199 2.67808 300.399 2.5124 299.574C-2.96371 271.578 -2.84738 237.917 2.9997 210C3.19838 209.025 3.39705 208.05 3.60175 207.046C13.44 160.014 36.106 106.816 73.9997 75C78.016 73.6612 80.096 74.5095 83.9997 76Z" fill="#030202"/>
<path d="M255.438 -0.374961C256.909 -0.36848 256.909 -0.36848 258.409 -0.361869C272.781 -0.287773 286.874 0.131576 301 3.00004C301.9 3.17696 302.801 3.35389 303.729 3.53617C310.203 4.83513 316.607 6.34623 323 8.00004C323.82 8.20967 324.64 8.41931 325.485 8.63529C365.951 19.2182 402.974 41.0803 433 70C433.989 70.9482 433.989 70.9482 434.998 71.9156C444.486 81.06 453.226 90.3574 461 101C461.858 102.151 462.716 103.302 463.574 104.453C469.612 112.643 474.995 121.145 480 130C480.402 130.707 480.804 131.414 481.219 132.143C502.495 169.934 512.476 212.377 512.312 255.563C512.31 256.583 512.308 257.604 512.306 258.656C512.256 273.298 511.946 287.61 509 302C508.807 302.997 508.613 303.993 508.414 305.02C500.301 346.079 482.956 383.249 457 416C456.564 416.553 456.128 417.106 455.679 417.676C452.58 421.57 449.346 425.317 446 429C445.337 429.731 444.675 430.461 443.992 431.214C441.793 433.607 439.559 435.963 437.312 438.313C436.612 439.073 435.911 439.833 435.189 440.617C429.463 446.469 429.463 446.469 424.641 446.645C421 446 421 446 418.438 443.375C416.698 439.291 416.588 438.196 418 434C420.584 430.843 423.53 428.103 426.5 425.313C428.161 423.701 429.819 422.087 431.473 420.469C432.264 419.695 433.056 418.922 433.872 418.125C437.968 414.035 441.526 409.63 445 405C445.423 404.448 445.846 403.896 446.282 403.328C453.218 394.268 459.414 384.947 465 375C465.406 374.284 465.812 373.567 466.23 372.829C472.693 361.331 477.763 349.617 482.204 337.206C482.858 335.392 483.546 333.591 484.242 331.793C488.755 320.126 491.117 307.979 493.188 295.688C493.354 294.698 493.521 293.708 493.693 292.689C494.755 286.143 495.486 279.611 496 273C494.964 273.008 494.964 273.008 493.908 273.016C490.751 273.037 487.594 273.05 484.438 273.063C483.351 273.071 482.265 273.079 481.146 273.088C475.652 273.105 470.41 272.986 465 272C464.83 272.944 464.66 273.887 464.484 274.859C459.646 300.493 459.646 300.493 449.062 309.5C443.245 312.376 436.25 311.864 430 311C422.235 308.028 418.568 302.136 415 295C413.309 283.593 417.602 272.718 421 262C420.06 261.919 419.121 261.838 418.152 261.754C412.984 261.016 408.353 258.934 403.562 256.938C402.64 256.56 401.718 256.183 400.768 255.795C398.509 254.87 396.253 253.939 394 253C393.756 253.825 393.513 254.65 393.262 255.5C389.832 265.013 384.603 275.375 376 281C370.385 283.635 365.102 283.85 359 283C351.793 280.293 347.192 275.964 344 269C341.172 260.516 342.685 253.986 346.579 246.156C348.365 242.739 350.194 239.348 352.082 235.986C353.21 233.911 353.21 233.911 353 231C350.867 229.26 348.775 227.719 346.5 226.188C345.216 225.299 343.932 224.41 342.648 223.52C342.023 223.09 341.397 222.66 340.753 222.217C337.428 219.909 334.222 217.449 331 215C327.903 216.367 325.908 217.898 323.609 220.371C322.982 221.028 322.354 221.685 321.707 222.361C320.412 223.736 319.122 225.116 317.84 226.502C312.283 232.28 306.892 235.372 298.625 235.563C292.272 235.342 287.758 233.16 283 229C278.104 223.4 276.326 218.226 276.496 210.836C278.113 201.736 282.113 197.224 288.688 191C289.485 190.225 290.282 189.451 291.104 188.652C293.058 186.756 295.023 184.873 297 183C295.352 178.582 293.058 175.218 290.125 171.563C286.885 167.481 283.837 163.374 281 159C277.549 159.574 274.798 160.439 271.707 162.066C270.513 162.671 270.513 162.671 269.295 163.287C267.654 164.13 266.018 164.984 264.389 165.85C257.102 169.496 250.527 170.275 242.688 167.813C236.691 165.23 233.322 160.457 230 155C228.053 149.16 227.975 142.434 230.5 136.75C236.323 126.938 246.951 122.427 257 118C257.66 118 258.32 118 259 118C258.763 117.395 258.526 116.791 258.281 116.168C257.203 113.406 256.132 110.64 255.062 107.875C254.503 106.448 254.503 106.448 253.932 104.992C252.139 100.34 250.53 95.9976 250 91C249.427 91.1818 248.853 91.3636 248.263 91.5508C222.428 99.6338 222.428 99.6338 212.625 95.4375C206.957 92.1074 203.006 87.2443 201 81C200.003 73.064 200.19 66.5807 204.906 59.9649C211.169 54.0877 218.105 51.7571 226.312 49.6875C227.301 49.4239 228.289 49.1603 229.307 48.8887C236.513 47 236.513 47 240 47C239.892 46.157 239.892 46.157 239.781 45.2969C238.705 35.5482 238.914 25.7925 239 16C208.622 18.8901 178.463 25.4948 151.289 39.75C147.149 41.3235 144.407 41.3405 140 41C137.5 39.375 137.5 39.375 136 37C135.438 34.0625 135.438 34.0625 136 31C139.866 26.3017 144.176 24.1259 149.625 21.75C150.489 21.3694 151.353 20.9888 152.243 20.5967C167.574 14.0239 183.522 8.72532 199.812 5.12504C200.621 4.94618 201.429 4.76732 202.261 4.58305C205.166 3.98933 208.074 3.4834 211 3.00004C211.751 2.87583 212.502 2.75161 213.276 2.62364C227.384 0.347608 241.158 -0.495202 255.438 -0.374961Z" fill="#030202"/>
<path d="M14.9998 254C18.7498 253.971 22.4997 253.953 26.2498 253.938C27.845 253.925 27.845 253.925 29.4724 253.912C30.4972 253.909 31.522 253.906 32.5779 253.902C33.9918 253.894 33.9918 253.894 35.4343 253.886C37.781 253.99 39.7562 254.333 41.9998 255C41.8836 256.376 41.7563 257.751 41.6248 259.125C41.5552 259.891 41.4856 260.656 41.4138 261.445C40.9998 264 40.9998 264 39.9842 266.906C37.9292 273.365 37.7494 281.172 40.5623 287.438C43.4453 292.273 47.5518 295.583 52.3748 298.375C60.2364 300.247 65.9622 298.687 72.9998 295C73.7049 294.729 74.41 294.459 75.1365 294.18C77.7845 292.503 78.0464 290.983 78.9998 288C79.4784 286.595 79.9576 285.19 80.4373 283.785C80.9596 282.211 81.4804 280.637 81.9998 279.062C82.2602 278.277 82.5206 277.491 82.7888 276.682C83.2946 275.155 83.7999 273.629 84.3045 272.102C85.1983 269.4 86.0984 266.7 86.9998 264C90.4589 265.143 93.917 266.29 97.3748 267.438C98.852 267.926 98.852 267.926 100.359 268.424C101.3 268.736 102.241 269.049 103.211 269.371C104.08 269.659 104.949 269.947 105.845 270.244C108 271 108 271 110 272C109.387 276.895 107.257 280.758 105 285.062C104.267 286.468 103.538 287.876 102.812 289.285C102.489 289.903 102.165 290.52 101.832 291.156C99.1962 296.996 99.0082 303.55 100.765 309.664C103.286 315.54 106.516 319.027 112.183 322C118.541 324.257 125.17 324.149 131.375 321.438C138.611 316.978 142.327 310.05 145.875 302.562C146.277 301.736 146.679 300.909 147.094 300.057C148.072 298.042 149.04 296.023 150 294C153.994 295.918 157.462 298.31 161.062 300.875C161.687 301.309 162.311 301.744 162.955 302.191C163.559 302.621 164.163 303.05 164.785 303.492C165.33 303.877 165.876 304.263 166.438 304.66C168.286 306.246 169.6 308.015 171 310C170.531 310.453 170.062 310.907 169.579 311.374C167.44 313.449 165.314 315.537 163.187 317.625C162.449 318.338 161.711 319.051 160.951 319.785C156.206 324.466 152.509 328.306 151.566 335.148C151.557 343.085 152.068 348.926 157.719 354.781C162.411 358.996 165.816 360.171 172.187 360.312C173.274 360.35 174.361 360.387 175.48 360.426C184.056 359.388 189.163 354.341 194.875 348.25C196.18 346.876 197.49 345.506 198.804 344.141C199.371 343.538 199.939 342.935 200.523 342.313C202 341 202 341 204 341C205.404 342.605 205.404 342.605 207.004 344.832C207.867 346.03 207.867 346.03 208.748 347.252C209.347 348.097 209.945 348.942 210.562 349.812C211.466 351.063 211.466 351.063 212.388 352.338C216.863 358.591 216.863 358.591 218 362C217.395 362.297 216.79 362.593 216.167 362.899C213.395 364.27 210.635 365.666 207.875 367.062C206.923 367.528 205.972 367.994 204.992 368.475C198.125 371.98 193.572 375.675 189.625 382.312C187.878 389.825 188.885 396.051 192 403C192.309 403.784 192.619 404.567 192.937 405.375C194.347 407.531 195.629 408.012 198 409C198.825 409.536 199.65 410.072 200.5 410.625C206.763 413.086 212.152 413.498 218.554 411.005C224.12 408.524 229.543 405.779 234.922 402.918C237 402 237 402 240 402C246.519 417.745 246.519 417.745 248 425C247.201 425.242 246.401 425.485 245.578 425.734C243.274 426.437 240.972 427.148 238.672 427.863C236.333 428.587 233.99 429.295 231.64 429.98C222.867 432.654 218.808 436.101 214 444C211.788 450.635 212.6 456.694 215.66 462.922C218.591 467.468 222.96 471.027 228 473C235.599 473.737 242.651 473.339 249.816 470.656C252.299 469.91 254.421 469.891 257 470C258.039 473.118 258.115 475.275 258.097 478.543C258.094 479.616 258.091 480.689 258.088 481.795C258.079 482.914 258.071 484.034 258.062 485.188C258.058 486.319 258.053 487.45 258.049 488.615C258.037 491.41 258.02 494.205 258 497C241.632 497.632 226.106 495.88 210 493C208.729 492.776 208.729 492.776 207.433 492.547C152.939 482.589 99.2541 449.318 65.9998 405C65.5768 404.448 65.1538 403.896 64.718 403.328C57.7815 394.268 51.5858 384.947 45.9998 375C45.5937 374.284 45.1877 373.567 44.7693 372.829C38.307 361.331 33.2364 349.617 28.7957 337.206C28.1413 335.392 27.4539 333.591 26.7576 331.793C17.2716 307.269 14.4324 280.101 14.9998 254Z" fill="#E9E9E9"/>
<path d="M254 15C315.065 13.2716 375.53 37.4158 420 79C430.042 88.4946 439.634 98.1628 447.789 109.345C448.994 110.992 450.227 112.616 451.465 114.238C482.176 155.124 498.407 207.029 497 258C493.437 258.029 489.875 258.047 486.312 258.062C485.305 258.071 484.297 258.079 483.259 258.088C482.283 258.091 481.307 258.094 480.301 258.098C478.957 258.106 478.957 258.106 477.587 258.114C474.963 257.998 472.557 257.582 470 257C470.116 255.624 470.243 254.249 470.375 252.875C470.479 251.726 470.479 251.726 470.586 250.555C471 248 471 248 472.011 245.125C473.959 238.967 474.324 231.567 472.054 225.453C468.232 219.059 463.054 215.351 456 213C449.436 212.018 444.488 213.341 439 217C430.986 223.375 429.204 233.372 426.832 242.84C426 246 426 246 425 248C416.979 246.058 409.545 243.332 402 240C402.486 235.62 404.297 232.262 406.29 228.413C412.342 216.799 412.342 216.799 412 204C410.879 201.625 409.68 199.613 408.093 197.523C407 196 407 196 407 194C405.677 193.312 404.34 192.653 403 192C401.989 191.464 400.978 190.928 399.937 190.375C394.467 188.086 388.399 188.019 382.726 189.656C374.131 193.477 369.985 201.29 366.125 209.438C365.723 210.264 365.32 211.091 364.906 211.943C363.928 213.958 362.959 215.977 362 218C359.37 216.742 356.986 215.384 354.617 213.688C353.702 213.034 353.702 213.034 352.769 212.367C351.831 211.69 351.831 211.69 350.875 211C350.242 210.549 349.609 210.098 348.957 209.633C346.49 207.863 344.15 206.15 342 204C342.322 200.631 343.625 199.044 346.054 196.793C346.669 196.206 347.284 195.619 347.918 195.014C349.212 193.806 350.509 192.6 351.808 191.396C356.81 186.609 359.454 182.778 360.468 175.754C360.54 168.487 359.959 163.503 355 158C350.065 153.312 345.449 151.7 338.687 151.562C337.619 151.523 336.55 151.483 335.449 151.441C327.403 152.744 321.944 158.64 316.5 164.312C315.552 165.28 315.552 165.28 314.586 166.268C313.05 167.838 311.522 169.416 310 171C305.412 167.729 302.43 163.896 299.187 159.375C298.685 158.694 298.183 158.014 297.666 157.312C294 152.265 294 152.265 294 150C294.604 149.703 295.209 149.407 295.832 149.101C298.605 147.73 301.365 146.334 304.125 144.938C305.076 144.472 306.027 144.006 307.008 143.525C313.945 139.984 318.703 136.386 322.347 129.426C323.822 123.941 324.245 117.764 321.879 112.512C320.546 110.387 320.546 110.387 319.093 108.523C318 107 318 107 318 105C316.677 104.312 315.34 103.653 314 103C312.989 102.464 311.978 101.928 310.937 101.375C305.26 99.0225 298.989 98.998 293.187 100.943C290.4 102.204 287.7 103.562 285 105C283.169 105.942 281.336 106.88 279.5 107.812C278.706 108.231 277.912 108.65 277.093 109.082C275 110 275 110 272 110C271.59 108.891 271.18 107.783 270.758 106.641C270.213 105.177 269.669 103.714 269.125 102.25C268.855 101.52 268.586 100.791 268.308 100.039C266.735 95.7926 266.735 95.7926 264.742 91.7344C263.774 89.4719 264.332 88.311 265 86C266.9 85.5456 266.9 85.5456 268.84 85.082C283.697 81.9101 283.697 81.9101 295.437 73C295.953 72.01 296.468 71.02 297 70C297.412 69.2369 297.825 68.4737 298.25 67.6875C300.126 60.9638 299.399 55.1195 296 49C292.643 44.0969 289.032 40.2064 283 39C275.366 38.2821 268.622 38.9783 261.34 41.3438C259 42 259 42 255 42C253.795 36.3647 253.887 30.8546 253.937 25.125C253.942 24.1505 253.946 23.1759 253.951 22.1719C253.963 19.7812 253.979 17.3906 254 15Z" fill="#EAEAEA"/>
<path d="M310 21C363.866 33.1124 415.016 64.4044 447.79 109.345C448.994 110.992 450.227 112.616 451.465 114.238C482.176 155.124 498.407 207.029 497 258C493.438 258.029 489.875 258.047 486.312 258.062C485.305 258.071 484.298 258.079 483.26 258.088C482.283 258.091 481.307 258.094 480.301 258.098C478.958 258.106 478.958 258.106 477.587 258.114C474.964 257.998 472.557 257.582 470 257C470.116 255.624 470.243 254.249 470.375 252.875C470.479 251.726 470.479 251.726 470.586 250.555C471 248 471 248 472.023 245.137C473.127 241.593 473.266 238.643 473.25 234.938C473.255 233.75 473.26 232.563 473.266 231.34C473.182 228.09 473.182 228.09 472.012 225.639C470.913 222.774 470.687 220.49 470.539 217.434C470.093 211.119 468.899 205.197 467.375 199.062C467.109 197.982 466.843 196.902 466.57 195.788C457.631 160.343 441.607 127.045 418 99C417.571 98.4826 417.143 97.9652 416.701 97.4321C406.18 84.7416 395.035 73.1422 382 63C381.041 62.224 380.082 61.448 379.094 60.6484C360.462 45.8277 339.521 33.8552 317.233 25.5107C316.431 25.2081 315.63 24.9055 314.805 24.5938C314.093 24.3327 313.381 24.0717 312.648 23.8027C311 23 311 23 310 21Z" fill="#DBD9D7"/>
<path d="M474 273C481.26 273 488.52 273 496 273C496 285.39 496 285.39 495.266 289.762C495.106 290.727 494.947 291.691 494.782 292.685C494.607 293.676 494.431 294.667 494.25 295.688C494.066 296.742 493.882 297.797 493.692 298.883C485.393 345.317 463.224 390.677 429.168 423.773C428.526 424.397 427.885 425.021 427.224 425.664C425.981 426.858 424.725 428.04 423.456 429.208C420.715 431.819 419.181 433.416 418.043 437.094C417.892 440.375 417.892 440.375 419 445C415.04 448.3 411.08 451.6 407 455C405.515 454.01 405.515 454.01 404 453C396.741 452.08 393.043 454.297 387.188 458.375C385.502 459.488 383.813 460.596 382.121 461.699C381.268 462.257 380.414 462.814 379.535 463.388C359.208 476.314 333.893 487.233 310 491C311.388 488.224 312.884 488.062 315.75 486.934C317.239 486.336 317.239 486.336 318.757 485.727C319.827 485.301 320.897 484.876 322 484.438C359.416 469.15 394.077 444.031 419 412C419.776 411.041 420.552 410.082 421.352 409.094C452.816 369.539 468.122 322.7 474 273Z" fill="#DCDAD8"/>
<path d="M453.125 227.062C457.552 228.506 457.552 228.506 459 231C459.732 238.89 457.415 246.127 455.375 253.687C455.009 255.07 454.644 256.452 454.279 257.835C453.203 261.895 452.106 265.948 451 270C450.692 271.132 450.383 272.264 450.065 273.43C449.261 276.352 448.448 279.271 447.625 282.187C447.387 283.035 447.149 283.882 446.904 284.755C446.681 285.53 446.457 286.306 446.227 287.105C446.037 287.767 445.847 288.429 445.651 289.11C443.752 294.624 443.752 294.624 441 296C437.164 296.355 434.854 296.547 431.563 294.437C429.421 291.097 429.762 288.941 430 285C430.631 282.458 431.315 280.043 432.125 277.562C434.369 270.349 436.269 263.087 438.063 255.75C441.597 241.5 441.597 241.5 443.063 236.25C443.322 235.306 443.581 234.363 443.848 233.391C445.861 229.214 448.457 226.969 453.125 227.062Z" fill="#EE4134"/>
<path d="M74.4377 215.562C78.0002 216 78.0002 216 80.4377 217.562C82.606 220.945 82.2696 222.99 82.0002 227C81.2766 230.284 80.303 233.476 79.3127 236.688C77.1577 243.923 75.1586 251.164 73.3752 258.5C70.4841 270.182 70.4841 270.182 69.0002 275.5C68.598 276.97 68.598 276.97 68.1877 278.469C66.6834 281.675 64.9596 283.098 62.0002 285C58.8018 284.936 56.8782 284.69 54.3425 282.697C51.8414 279.535 52.5891 275.837 53.0002 272C53.6726 268.743 54.6247 265.607 55.6252 262.438C58.3492 253.412 60.7201 244.341 62.9069 235.172C67.4508 216.452 67.4508 216.452 74.4377 215.562Z" fill="#EE4134"/>
<path d="M292 430C294.438 431.563 294.438 431.563 296 434C296.739 440.014 296.739 440.014 294.801 442.602C287.568 448.219 274.521 449.463 265.747 451.705C260.382 453.083 255.072 454.555 249.785 456.204C237.332 460.073 237.332 460.073 231 459C228.202 456.611 227.26 455.04 226.375 451.5C227.321 447.714 229.784 445.945 233 444C236.617 442.693 240.309 441.882 244.062 441.063C246.209 440.562 248.355 440.058 250.5 439.551C251.582 439.298 252.663 439.045 253.777 438.784C258.746 437.576 263.654 436.178 268.562 434.75C269.411 434.504 270.26 434.258 271.135 434.004C275.576 432.713 275.576 432.713 280.01 431.398C284.182 430.165 287.635 429.506 292 430Z" fill="#EF4134"/>
<path d="M281 53C283.625 55.125 283.625 55.125 285 58C284.938 61.1136 284.713 63.069 282.801 65.5664C280.397 67.48 278.222 68.0189 275.25 68.8125C274.003 69.1502 272.755 69.488 271.469 69.8359C269.98 70.2253 268.49 70.6132 267 71C266.137 71.2259 265.273 71.4518 264.383 71.6846C260.514 72.6965 256.645 73.7068 252.773 74.7048C248.077 75.9182 243.393 77.1568 238.731 78.4961C237.918 78.7288 237.106 78.9616 236.269 79.2014C234.764 79.6364 233.26 80.0778 231.759 80.5271C227.737 81.6884 224.187 82.3638 220 82C217.625 80.4375 217.625 80.4375 216 78C215.478 74.3456 215.277 72.0941 217.348 68.9609C221.461 65.9204 226 65.2249 230.938 64.125C233.103 63.615 235.267 63.1019 237.43 62.5859C238.524 62.3265 239.618 62.0671 240.746 61.7998C245.722 60.577 250.643 59.1793 255.563 57.75C256.412 57.5039 257.26 57.2579 258.135 57.0044C261.694 55.969 265.249 54.9252 268.797 53.8555C272.968 52.7416 276.729 52.2016 281 53Z" fill="#EF4134"/>
<path d="M263 358C265.875 359.625 265.875 359.625 268 362C268.625 364.937 268.625 364.937 268 368C263.715 373.407 257.867 375.936 251.785 378.957C250.697 379.505 249.608 380.053 248.487 380.617C246.19 381.769 243.891 382.916 241.59 384.058C238.071 385.808 234.563 387.582 231.057 389.357C228.821 390.475 226.585 391.592 224.348 392.707C223.301 393.238 222.254 393.769 221.175 394.317C220.19 394.801 219.206 395.285 218.192 395.784C216.902 396.428 216.902 396.428 215.586 397.085C212.534 398.165 210.216 398.309 207 398C204.114 395.418 203.137 393.747 202.438 389.937C203.203 385.937 204.688 385.319 208 383C210.584 381.531 213.234 380.219 215.906 378.918C216.667 378.541 217.429 378.163 218.213 377.775C220.639 376.573 223.069 375.38 225.5 374.187C227.894 373.008 230.287 371.827 232.679 370.644C234.241 369.871 235.804 369.101 237.368 368.332C243.11 365.493 248.688 362.441 254.221 359.208C257.412 357.821 259.554 357.653 263 358Z" fill="#F04235"/>
<path d="M391.5 203.187C395 204 395 204 396.938 205.187C398.507 207.865 398.202 209.93 398 213C397.04 215.675 397.04 215.675 395.677 218.407C395.169 219.438 394.662 220.469 394.139 221.531C393.583 222.628 393.026 223.725 392.453 224.855C391.886 225.994 391.318 227.133 390.733 228.306C389.532 230.708 388.326 233.108 387.112 235.505C385.559 238.57 384.026 241.646 382.499 244.725C381.035 247.669 379.556 250.606 378.078 253.543C377.256 255.198 377.256 255.198 376.418 256.886C375.637 258.418 375.637 258.418 374.841 259.981C374.388 260.88 373.935 261.779 373.468 262.705C371.885 265.18 370.503 266.484 368 268C365 268.5 365 268.5 362 268C359.28 265.566 358.136 263.997 357.641 260.362C358.133 255.758 359.974 252.392 362.129 248.34C362.556 247.514 362.984 246.687 363.424 245.836C364.792 243.197 366.177 240.567 367.563 237.937C368.468 236.197 369.372 234.455 370.276 232.713C372.437 228.552 374.619 224.402 376.812 220.257C377.921 218.151 379.017 216.04 380.109 213.926C380.727 212.744 381.346 211.561 381.965 210.379C382.486 209.375 383.006 208.372 383.543 207.338C385.808 203.704 387.221 202.958 391.5 203.187Z" fill="#F04235"/>
<path d="M300.75 113.688C304.794 114.076 306.302 114.984 309 118C309.625 120.938 309.625 120.938 309 124C305.45 128.177 301.509 130.584 296.636 132.926C295.927 133.277 295.217 133.628 294.486 133.99C292.224 135.107 289.956 136.21 287.687 137.312C286.207 138.04 284.727 138.769 283.248 139.498C281.038 140.587 278.828 141.674 276.613 142.751C272.894 144.561 269.2 146.405 265.537 148.326C264.82 148.698 264.102 149.07 263.362 149.454C262.008 150.158 260.659 150.872 259.316 151.597C255.386 153.63 252.421 154.565 248 154C245.562 151.938 245.562 151.938 244 149C243.75 145.5 243.75 145.5 245 142C250.315 137.591 257.214 134.768 263.371 131.734C264.334 131.256 265.297 130.777 266.289 130.283C269.336 128.768 272.387 127.259 275.437 125.75C278.513 124.226 281.587 122.701 284.661 121.174C286.567 120.227 288.475 119.282 290.383 118.339C291.666 117.703 291.666 117.703 292.974 117.054C293.729 116.68 294.485 116.307 295.263 115.922C299.125 113.872 299.125 113.872 300.75 113.688Z" fill="#F04235"/>
<path d="M212.978 291.328C216.624 292.139 217.945 292.877 220 296C220.688 298.75 220.688 298.75 220 302C218.693 303.763 218.693 303.763 216.974 305.662C216.338 306.367 215.702 307.071 215.046 307.797C209.317 313.966 203.44 319.987 197.531 325.984C195.879 327.668 194.235 329.359 192.6 331.059C190.222 333.527 187.82 335.969 185.41 338.406C184.686 339.169 183.962 339.931 183.216 340.716C177.455 346.456 177.455 346.456 172.599 346.537C169 346 169 346 167 345C165.293 341.586 165.074 338.633 166 335C168.616 331.175 171.857 328.046 175.16 324.812C176.109 323.861 177.056 322.908 178.002 321.955C179.985 319.965 181.98 317.99 183.987 316.025C186.553 313.51 189.084 310.964 191.606 308.405C193.555 306.434 195.521 304.481 197.492 302.532C198.887 301.148 200.269 299.749 201.651 298.351C208.759 291.452 208.759 291.452 212.978 291.328Z" fill="#F14235"/>
<path d="M343 166C345 167 345 167 346 169C346.584 172.236 346.796 173.888 346 177C343.395 180.746 340.169 183.785 336.883 186.934C335.955 187.852 335.028 188.771 334.072 189.717C331.615 192.15 329.133 194.557 326.647 196.961C324.617 198.93 322.605 200.916 320.593 202.904C316.44 207.006 312.274 211.095 308.082 215.158C306.97 216.238 306.97 216.238 305.835 217.339C303.453 219.495 302.352 219.962 299.125 220.312C296 220 296 220 293.625 218.437C291.933 215.9 291.293 214.157 291.383 211.097C292.859 206.078 297.507 202.484 301.125 198.91C302.071 197.957 303.016 197.003 303.96 196.048C305.939 194.054 307.931 192.073 309.932 190.1C312.489 187.578 315.01 185.023 317.523 182.457C319.467 180.48 321.429 178.523 323.397 176.571C324.788 175.184 326.163 173.78 327.538 172.376C332.738 167.309 335.627 164.658 343 166Z" fill="#F14235"/>
<path d="M151 245C152.938 246.187 152.938 246.187 154 248C154.343 252.504 153.682 255.388 151.677 259.407C151.169 260.438 150.662 261.469 150.138 262.531C149.582 263.628 149.026 264.725 148.453 265.855C147.886 266.994 147.318 268.133 146.733 269.306C145.532 271.708 144.326 274.108 143.111 276.505C141.558 279.57 140.026 282.646 138.498 285.725C137.035 288.669 135.556 291.606 134.078 294.543C133.256 296.198 133.256 296.198 132.417 297.886C131.637 299.418 131.637 299.418 130.841 300.981C130.388 301.88 129.935 302.779 129.468 303.705C127.885 306.18 126.503 307.484 124 309C121 309.5 121 309.5 118 309C115.256 306.544 114.128 304.982 113.648 301.312C114.107 296.995 115.896 293.835 118 290.125C121.512 283.733 124.878 277.291 128.086 270.742C128.616 269.665 128.616 269.665 129.156 268.566C130.587 265.653 132.017 262.741 133.429 259.82C134.431 257.75 135.445 255.687 136.461 253.625C136.907 252.689 136.907 252.689 137.363 251.733C140.738 244.941 143.499 243.091 151 245Z" fill="#F14235"/>
<path d="M150 294C154.026 295.796 157.488 298.329 161.062 300.875C161.687 301.309 162.312 301.744 162.955 302.191C163.559 302.621 164.163 303.05 164.785 303.492C165.331 303.877 165.876 304.263 166.438 304.66C168 306 168 306 171 310C166.05 314.95 161.1 319.9 156 325C148 319 148 319 145.188 316.625C143.053 314.702 143.053 314.702 140 315C141.725 310.397 143.91 306.067 146.125 301.688C146.498 300.947 146.87 300.206 147.254 299.443C148.167 297.628 149.083 295.814 150 294Z" fill="#D9D7D5"/>
<path d="M204 341C205.405 342.605 205.405 342.605 207.004 344.832C207.579 345.631 208.155 346.429 208.748 347.252C209.646 348.519 209.646 348.519 210.562 349.812C211.165 350.646 211.768 351.479 212.389 352.338C216.864 358.591 216.864 358.591 218 362C208.595 366.455 208.595 366.455 199 371C195.04 366.38 191.08 361.76 187 357C190.544 352.865 193.941 348.904 197.75 345.062C198.508 344.29 199.266 343.518 200.047 342.723C202 341 202 341 204 341Z" fill="#D9D7D5"/>
<path d="M121 43C123.484 45.2356 123.939 46.642 124.5 49.9375C123.535 55.8472 117.214 59.6789 112.687 63.3125C111.892 63.9941 111.892 63.9941 111.08 64.6894C106.513 68.3268 103.59 68.59 97.9998 68C95.4998 66.375 95.4998 66.375 93.9998 64C93.3833 60.378 93.5285 58.7005 95.5896 55.6367C98.4687 52.4869 101.569 50.1728 105.062 47.75C105.999 47.081 105.999 47.081 106.955 46.3984C112.007 42.8399 114.9 41.3478 121 43Z" fill="#020202"/>
<path d="M240 402C246.519 417.745 246.519 417.745 248 425C246.756 425.535 245.504 426.052 244.25 426.562C243.554 426.853 242.858 427.143 242.141 427.441C239.587 428.108 238.456 427.932 236 427C234.644 425.358 234.644 425.358 233.457 423.254C233.023 422.499 232.589 421.744 232.143 420.967C231.704 420.173 231.265 419.38 230.812 418.562C230.362 417.773 229.911 416.983 229.447 416.17C227.912 413.471 226.389 410.777 225 408C226.934 406.993 228.872 405.994 230.812 405C231.891 404.443 232.97 403.886 234.082 403.312C237 402 237 402 240 402Z" fill="#D9D7D5"/>
<path d="M87 264C90.4591 265.143 93.9172 266.29 97.375 267.438C98.3598 267.763 99.3447 268.088 100.359 268.424C101.3 268.736 102.241 269.049 103.211 269.371C104.515 269.803 104.515 269.803 105.845 270.244C108 271 108 271 110 272C109.396 275.85 108.232 278.861 106.438 282.312C105.982 283.196 105.527 284.079 105.059 284.988C104.709 285.652 104.36 286.316 104 287C101.79 285.753 99.5821 284.502 97.375 283.25C96.7575 282.902 96.1401 282.554 95.5039 282.195C91.5517 279.949 87.7541 277.564 84 275C84.3078 273.353 84.6214 271.708 84.9375 270.062C85.1115 269.146 85.2855 268.229 85.4648 267.285C86 265 86 265 87 264Z" fill="#DAD8D6"/>
<path d="M473 243C473.33 243 473.66 243 474 243C475.206 247.672 475.094 252.215 475 257C473.35 257 471.7 257 470 257C470.412 252.029 470.796 247.555 473 243Z" fill="#E0E0E0"/>
<path d="M310 21C314.62 21.99 319.24 22.98 324 24C323.34 24.66 322.68 25.32 322 26C317.422 25.6879 313.994 24.1873 310 22C310 21.67 310 21.34 310 21Z" fill="#C0BEBC"/>
</g>
<defs>
<clipPath id="clip0_97_3">
<rect width="512" height="512" fill="white"/>
</clipPath>
</defs>
</svg>
